<svg width="250" height="250" viewBox="0 0 250 250" fill="none" xmlns="http://www.w3.org/2000/svg">
<g clip-path="url(#clip0_1_2)">
<path d="M72.5 181.15C72.5 172.7 72.5 172.6 73.65 172.3C74.25 172.15 75.3 172 76.05 172C76.75 172 78.5 171.4 79.95 170.65C82.25 169.55 82.8 168.95 83.95 166.55L85.25 163.75L85.5 128L85.75 92.25L96.4 92.1L107 92V93.2V94.4L111.25 92.9C118.45 90.45 131.9 90.1 139.5 92.2C151.35 95.5 159.9 104.4 162.25 115.9C163.25 120.65 163.25 130.85 162.25 135.5C160.85 142.05 156.4 149.45 151.65 153.1C144.25 158.7 136.15 160.8 123.65 160.4C117.1 160.15 115.75 159.95 111.75 158.6C109.3 157.75 107.25 157.1 107.25 157.15C107.2 157.2 106.9 159.85 106.55 163C104.65 181 96.85 188.15 78 189.3L72.5 189.65V181.15ZM131.1 142C133.7 141.25 136.95 138.65 138.9 135.8C143.45 129 142.85 119.45 137.45 113.3C129.65 104.4 116.4 107.25 111.95 118.85C109.45 125.4 111.15 133.6 116.05 138.5C120.1 142.55 125.2 143.7 131.1 142Z" fill="#F8B500"/>
<path d="M90.7 84.3C86.8 82.6 84.55 78.45 84.5 73.1C84.5 68.7 85.2 66.8 87.9 64.4C90.4 62.1 93.25 61.3 97.6 61.6C101.75 61.9 104.3 63.2 106.25 65.95C107.7 68 107.75 68.3 107.75 73.25C107.75 78.2 107.7 78.5 106.25 80.6C104 83.8 101.25 85 96.25 85C94.05 84.95 91.55 84.65 90.7 84.3Z" fill="#F8B500"/>
<path d="M56.5 249.7C55.8 249.6 53.55 249.25 51.5 248.9C43.85 247.75 35.1 244.25 27.75 239.45C22.85 236.2 14 227.45 10.9 222.75C6.4 215.9 3.3 208.55 1.15 199.5C0.3 196 0.25 191.2 0.25 124.75V53.75L1.85 47.65C4.8 36.15 10.15 26.85 18.5 18.5C27.6 9.35 37.9 3.8 50.6 1.1C54.45 0.300004 60.3 0.250004 125.25 0.250004C203.15 0.250004 197.55 0.0500042 207.55 3.45C216.95 6.6 224.5 11.35 231.75 18.7C240.75 27.75 246.25 37.95 248.9 50.6C249.7 54.45 249.75 60.3 249.75 125.5V196.25L248.6 200.75C245.25 214 240.5 222.55 231.55 231.55C222.5 240.55 213.05 245.7 200 248.85C196.5 249.65 191.5 249.75 127 249.8C88.9 249.85 57.2 249.8 56.5 249.7ZM85.5 186.65C91.8 185.25 97.1 182 100 177.7C103.05 173.3 105.5 163.95 105.5 156.65C105.5 155.2 105.6 154 105.75 154C105.9 154 106.9 154.45 108 155C116.7 159.45 130.2 160.3 139.8 157C148.85 153.9 154.3 149.15 158.35 140.95C160.45 136.65 161.5 131.65 161.5 125.75C161.5 116 158.45 107.85 152.55 101.95C149.95 99.35 148.2 98.15 144.5 96.4C137.95 93.25 134.3 92.45 126.35 92.45C118.95 92.45 114.5 93.35 108.85 95.95L105.5 97.45V95.45V93.5L96.4 93.6L87.25 93.75L87 129.5L86.75 165.25L85.45 168.05C84.3 170.45 83.75 171.05 81.45 172.15C80 172.9 78.25 173.5 77.55 173.5C76.8 173.5 75.75 173.65 75.15 173.8C74.05 174.1 74 174.3 74 181.1V188.1L78.15 187.75C80.4 187.55 83.7 187.05 85.5 186.65ZM101 82.4C107.45 79.15 108.4 69.55 102.75 65.2C100.5 63.5 96.4 62.7 93.6 63.45C91.05 64.15 87.65 67.1 86.65 69.35C84.7 74.05 87.45 80.75 92.2 82.8C94.65 83.85 98.45 83.65 101 82.4Z" fill="#383D45"/>
<path d="M119.85 143.4C115.85 142.05 112.6 138.7 110.75 134.15C109.5 131.2 109.35 130.1 109.35 125.5C109.3 121.2 109.55 119.7 110.45 117.35C112 113.4 114.2 110.7 117.65 108.6C120.25 107 121 106.8 124.8 106.6C131.35 106.25 135.4 107.75 138.95 111.8C146.45 120.3 144.7 136.45 135.7 142.05C131.6 144.55 124.85 145.15 119.85 143.4Z" fill="#383D45"/>
</g>
<defs>
<clipPath id="clip0_1_2">
<rect width="250" height="250" fill="white"/>
</clipPath>
</defs>
</svg>
